HIERARCHY
ROOT hip
{
  OFFSET 0 0 0
  CHANNELS 6 Xposition Yposition Zposition Zrotation Yrotation Xrotation
  JOINT abdomen
  {
    OFFSET 0 20.6881 -0.73152
    CHANNELS 3 Zrotation Xrotation Yrotation
    JOINT chest
    {
      OFFSET 0 11.7043 -0.48768
      CHANNELS 3 Zrotation Xrotation Yrotation
      JOINT neck
      {
        OFFSET 0 22.1894 -2.19456
        CHANNELS 3 Zrotation Xrotation Yrotation
        JOINT head
        {
          OFFSET -0.24384 7.07133 1.2192
          CHANNELS 3 Zrotation Xrotation Yrotation
          JOINT leftEye
          {
            OFFSET 4.14528 8.04674 8.04672
            CHANNELS 3 Zrotation Xrotation Yrotation
            End Site
            {
              OFFSET 1 0 0
            }
          }
          JOINT rightEye
          {
            OFFSET -3.6576 8.04674 8.04672
            CHANNELS 3 Zrotation Xrotation Yrotation
            End Site
            {
              OFFSET 1 0 0
            }
          }
        }
      }
      JOINT rCollar
      {
        OFFSET -2.68224 19.2634 -4.8768
        CHANNELS 3 Zrotation Xrotation Yrotation
        JOINT rShldr
        {
          OFFSET -8.77824 -1.95073 1.46304
          CHANNELS 3 Zrotation Xrotation Yrotation
          JOINT rForeArm
          {
            OFFSET -28.1742 -1.7115 0.48768
            CHANNELS 3 Zrotation Xrotation Yrotation
            JOINT rHand
            {
              OFFSET -22.5879 0.773209 7.07136
              CHANNELS 3 Zrotation Xrotation Yrotation
              JOINT rThumb1
              {
                OFFSET -1.2192 -0.487915 3.41376
                CHANNELS 3 Zrotation Xrotation Yrotation
                JOINT rThumb2
                {
                  OFFSET -3.37035 -0.52449 3.41376
                  CHANNELS 3 Zrotation Xrotation Yrotation
                  End Site
                  {
                    OFFSET -1.78271 -1.18214 1.43049
                  }
                }
              }
              JOINT rIndex1
              {
                OFFSET -7.75947 0.938293 5.60832
                CHANNELS 3 Zrotation Xrotation Yrotation
                JOINT rIndex2
                {
                  OFFSET -2.54057 -0.884171 1.56538
                  CHANNELS 3 Zrotation Xrotation Yrotation
                  End Site
                  {
                    OFFSET -1.62519 -0.234802 1.16502
                  }
                }
              }
              JOINT rMid1
              {
                OFFSET -8.24714 1.18213 3.41376
                CHANNELS 3 Zrotation Xrotation Yrotation
                JOINT rMid2
                {
                  OFFSET -3.10165 -0.590103 1.0647
                  CHANNELS 3 Zrotation Xrotation Yrotation
                  End Site
                  {
                    OFFSET -2.48547 -0.328903 0.83742
                  }
                }
              }
              JOINT rRing1
              {
                OFFSET -8.82822 0.546677 1.51678
                CHANNELS 3 Zrotation Xrotation Yrotation
                JOINT rRing2
                {
                  OFFSET -2.60934 -0.819778 -0.0198488
                  CHANNELS 3 Zrotation Xrotation Yrotation
                  End Site
                  {
                    OFFSET -2.33842 -0.294052 0.168128
                  }
                }
              }
              JOINT rPinky1
              {
                OFFSET -8.27202 -0.0477905 -0.4584
                CHANNELS 3 Zrotation Xrotation Yrotation
                JOINT rPinky2
                {
                  OFFSET -1.82734 -0.647385 -0.700984
                  CHANNELS 3 Zrotation Xrotation Yrotation
                  End Site
                  {
                    OFFSET -1.69225 -0.51767 -0.607171
                  }
                }
              }
            }
          }
        }
      }
      JOINT lCollar
      {
        OFFSET 2.68224 19.2634 -4.8768
        CHANNELS 3 Zrotation Xrotation Yrotation
        JOINT lShldr
        {
          OFFSET 8.77824 -1.95073 1.46304
          CHANNELS 3 Zrotation Xrotation Yrotation
          JOINT lForeArm
          {
            OFFSET 28.1742 -1.7115 0.48768
            CHANNELS 3 Zrotation Xrotation Yrotation
            JOINT lHand
            {
              OFFSET 22.5879 0.773209 7.07136
              CHANNELS 3 Zrotation Xrotation Yrotation
              JOINT lThumb1
              {
                OFFSET 1.2192 -0.487915 3.41376
                CHANNELS 3 Zrotation Xrotation Yrotation
                JOINT lThumb2
                {
                  OFFSET 3.37035 -0.52449 3.41376
                  CHANNELS 3 Zrotation Xrotation Yrotation
                  End Site
                  {
                    OFFSET 1.78271 -1.18214 1.43049
                  }
                }
              }
              JOINT lIndex1
              {
                OFFSET 7.75947 0.938293 5.60832
                CHANNELS 3 Zrotation Xrotation Yrotation
                JOINT lIndex2
                {
                  OFFSET 2.54057 -0.884171 1.56538
                  CHANNELS 3 Zrotation Xrotation Yrotation
                  End Site
                  {
                    OFFSET 1.62519 -0.234802 1.16502
                  }
                }
              }
              JOINT lMid1
              {
                OFFSET 8.24714 1.18213 3.41376
                CHANNELS 3 Zrotation Xrotation Yrotation
                JOINT lMid2
                {
                  OFFSET 3.10165 -0.590103 1.0647
                  CHANNELS 3 Zrotation Xrotation Yrotation
                  End Site
                  {
                    OFFSET 2.48547 -0.328903 0.83742
                  }
                }
              }
              JOINT lRing1
              {
                OFFSET 8.82822 0.546677 1.51678
                CHANNELS 3 Zrotation Xrotation Yrotation
                JOINT lRing2
                {
                  OFFSET 2.60934 -0.819778 -0.0198488
                  CHANNELS 3 Zrotation Xrotation Yrotation
                  End Site
                  {
                    OFFSET 2.33842 -0.294052 0.168128
                  }
                }
              }
              JOINT lPinky1
              {
                OFFSET 8.27202 -0.0477905 -0.4584
                CHANNELS 3 Zrotation Xrotation Yrotation
                JOINT lPinky2
                {
                  OFFSET 1.82734 -0.647385 -0.700984
                  CHANNELS 3 Zrotation Xrotation Yrotation
                  End Site
                  {
                    OFFSET 1.69225 -0.51767 -0.607171
                  }
                }
              }
            }
          }
        }
      }
    }
  }
  JOINT rButtock
  {
    OFFSET -8.77824 4.35084 1.2192
    CHANNELS 3 Zrotation Xrotation Yrotation
    JOINT rThigh
    {
      OFFSET 0 -1.70687 -2.19456
      CHANNELS 3 Zrotation Xrotation Yrotation
      JOINT rShin
      {
        OFFSET 0 -36.8199 0.73152
        CHANNELS 3 Zrotation Xrotation Yrotation
        JOINT rFoot
        {
          OFFSET 0.73152 -45.1104 -5.12064
          CHANNELS 3 Zrotation Xrotation Yrotation
          End Site
          {
            OFFSET -1.1221 -3.69964 12.103
          }
        }
      }
    }
  }
  JOINT lButtock
  {
    OFFSET 8.77824 4.35084 1.2192
    CHANNELS 3 Zrotation Xrotation Yrotation
    JOINT lThigh
    {
      OFFSET 0 -1.70687 -2.19456
      CHANNELS 3 Zrotation Xrotation Yrotation
      JOINT lShin
      {
        OFFSET 0 -36.8199 0.73152
        CHANNELS 3 Zrotation Xrotation Yrotation
        JOINT lFoot
        {
          OFFSET -0.73152 -45.1104 -5.12064
          CHANNELS 3 Zrotation Xrotation Yrotation
          End Site
          {
            OFFSET 1.1221 -3.69964 12.103
          }
        }
      }
    }
  }
}
MOTION
Frames:	4
Frame Time:	0.00833333
118.723 83.274 32.3918 165.361 -88.5472 -152.015 1.79119 13.5512 1.4864 1.87706 -0.376829 0.405488 -12.7213 -7.00954 -3.19024 5.01528 12.9288 -2.70036 -0.0 0.0 0.0 -0.0 0.0 0.0 -1.61971e-14 -5.61437e-14 2.77145e-14 30.7038 17.4349 53.6842 -25.9466 -23.2984 56.5558 0.00383101 1.41958 0.199264 3.42186e-09 -7.10494e-10 8.19854e-10 5.91447e-09 -1.23241e-09 1.40717e-09 3.42187e-09 -7.10488e-10 8.19848e-10 7.73091 5.47488 0.417314 3.42186e-09 -7.10487e-10 8.19852e-10 2.90554 0.965183 0.102902 3.42187e-09 -7.10486e-10 8.19847e-10 10.2786 0.731801 0.0259123 3.42186e-09 -7.10488e-10 8.1985e-10 2.22167 -0.733487 -0.20892 -1.63176e-14 -5.61573e-14 2.7442e-14 -22.1799 17.7199 -71.387 21.5319 -15.0705 -42.5398 1.24673 29.973 -4.64986 -2.22039e-09 -1.6942e-09 -3.98975e-09 -3.93267e-09 -3.01708e-09 -6.82409e-09 -2.22039e-09 -1.6942e-09 -3.98974e-09 -7.73091 5.47488 -0.417314 -2.22039e-09 -1.6942e-09 -3.98975e-09 -2.90554 0.965183 -0.102902 -2.2204e-09 -1.6942e-09 -3.98975e-09 -10.2786 0.731801 -0.0259123 -2.22037e-09 -1.69419e-09 -3.98975e-09 -2.22167 -0.733487 0.20892 -2.03217e-16 0.0 -3.88251e-19 -8.61721 -29.8745 -4.51581 -0.128829 22.1706 0.342258 -1.24984 -3.63152 -6.59621 2.03217e-16 0.0 3.88251e-19 0.250977 -20.1694 11.3268 -0.000504137 15.5646 -0.342516 0.0432165 -5.95804 -1.16803
118.732 83.2683 32.3671 155.296 -88.4765 -141.882 1.74412 13.6173 1.46835 1.99415 -0.362175 0.398226 -12.8508 -7.00824 -3.20318 5.20553 12.8603 -2.68638 -0.0 0.0 0.0 -0.0 0.0 0.0 -7.87946e-15 3.37769e-13 -3.68684e-15 31.3808 17.7245 52.9972 -26.0004 -23.4356 56.7773 -0.00562275 3.40487 0.478738 1.90701e-09 -4.40094e-10 2.90919e-10 3.29546e-09 -7.62756e-10 4.9801e-10 1.90702e-09 -4.40091e-10 2.90913e-10 7.73091 5.47488 0.417314 1.90701e-09 -4.40091e-10 2.90919e-10 2.90554 0.965183 0.102902 1.90702e-09 -4.4009e-10 2.90914e-10 10.2786 0.731801 0.0259123 1.90701e-09 -4.40091e-10 2.9092e-10 2.22167 -0.733487 -0.20892 -7.92441e-15 3.37763e-13 -3.91668e-15 -21.6664 17.882 -71.0336 21.7182 -15.3402 -43.0332 1.27904 30.3086 -4.71344 -1.2565e-09 -9.5744e-10 -1.85208e-09 -2.21523e-09 -1.69445e-09 -3.1607e-09 -1.2565e-09 -9.57441e-10 -1.85207e-09 -7.73091 5.47488 -0.417314 -1.2565e-09 -9.5744e-10 -1.85208e-09 -2.90554 0.965183 -0.102902 -1.25651e-09 -9.57441e-10 -1.85208e-09 -10.2786 0.731801 -0.0259123 -1.25648e-09 -9.57433e-10 -1.85208e-09 -2.22167 -0.733487 0.20892 -2.03217e-16 0.0 -3.88251e-19 -8.67467 -30.0109 -4.37937 -0.129744 22.2959 0.345807 -1.29285 -3.75071 -6.78894 2.03217e-16 0.0 3.88251e-19 0.0923684 -20.127 11.1024 -0.000123892 15.3292 -0.340173 0.0583788 -5.86692 -1.08771
118.725 83.2642 32.3174 153.147 -88.4837 -139.732 1.68187 13.6848 1.45989 2.1231 -0.337939 0.392867 -12.9451 -7.01023 -3.20742 5.35456 12.788 -2.66372 -0.0 0.0 0.0 -0.0 0.0 0.0 3.79107e-15 6.77223e-13 -3.25491e-14 31.8871 17.9907 52.3652 -26.0455 -23.5521 56.9593 -0.0312882 5.45288 0.768517 3.47213e-10 -1.31285e-10 -2.10359e-10 5.98566e-10 -2.26361e-10 -3.62544e-10 3.47219e-10 -1.31286e-10 -2.10365e-10 7.73091 5.47488 0.417314 3.47212e-10 -1.31286e-10 -2.10357e-10 2.90554 0.965183 0.102902 3.4722e-10 -1.31285e-10 -2.10362e-10 10.2786 0.731801 0.0259123 3.47205e-10 -1.31285e-10 -2.10352e-10 2.22167 -0.733487 -0.20892 3.82509e-15 6.77227e-13 -3.27331e-14 -21.1265 18.0547 -70.6655 21.9112 -15.6244 -43.5511 1.30976 30.6346 -4.77502 -3.22329e-10 -2.11516e-10 2.70818e-10 -5.48985e-10 -3.55754e-10 4.77308e-10 -3.22331e-10 -2.11516e-10 2.70829e-10 -7.73091 5.47488 -0.417314 -3.22327e-10 -2.11516e-10 2.70818e-10 -2.90554 0.965183 -0.102902 -3.22336e-10 -2.11517e-10 2.70815e-10 -10.2786 0.731801 -0.0259123 -3.22317e-10 -2.11512e-10 2.70809e-10 -2.22167 -0.733487 0.20892 -2.03217e-16 0.0 -3.88251e-19 -8.70803 -30.1544 -4.15848 -0.130619 22.4174 0.349197 -1.34247 -3.83866 -7.04588 2.03217e-16 0.0 3.88251e-19 -0.0641399 -20.0976 10.8767 0.000247015 15.1123 -0.338035 0.0746335 -5.78405 -0.993965
118.718 83.2575 32.243 157.644 -88.4019 -144.178 1.68455 13.7754 1.45788 2.22979 -0.307413 0.390543 -12.9718 -7.02637 -3.19522 5.40572 12.7167 -2.62213 -0.0 0.0 0.0 -0.0 0.0 0.0 1.50649e-14 8.85234e-13 -5.11871e-14 32.1176 18.321 51.8976 -26.0923 -23.6742 57.1523 -0.0656455 7.29105 1.03031 -7.82769e-10 1.34948e-10 -5.33201e-10 -1.35506e-09 2.3601e-10 -9.1555e-10 -7.82761e-10 1.34945e-10 -5.33207e-10 7.73091 5.47488 0.417314 -7.8277e-10 1.34944e-10 -5.33198e-10 2.90554 0.965183 0.102902 -7.82761e-10 1.34945e-10 -5.33202e-10 10.2786 0.731801 0.0259123 -7.8278e-10 1.34946e-10 -5.33191e-10 2.22167 -0.733487 -0.20892 1.51513e-14 8.85243e-13 -5.13361e-14 -20.6512 18.2173 -70.2631 22.1073 -15.9191 -44.0801 1.35535 31.1131 -4.86588 2.96297e-10 2.91095e-10 1.68129e-09 5.54728e-10 5.46187e-10 2.89425e-09 2.96295e-10 2.91095e-10 1.6813e-09 -7.73091 5.47488 -0.417314 2.96299e-10 2.91095e-10 1.68129e-09 -2.90554 0.965183 -0.102902 2.9629e-10 2.91094e-10 1.68128e-09 -10.2786 0.731801 -0.0259123 2.96304e-10 2.91096e-10 1.68128e-09 -2.22167 -0.733487 0.20892 -2.03217e-16 0.0 -3.88251e-19 -8.69441 -30.2724 -4.01222 -0.131113 22.4911 0.351067 -1.37376 -3.88004 -7.21711 2.03217e-16 0.0 3.88251e-19 -0.134444 -20.1233 10.7077 0.000390607 15.0179 -0.337305 0.091184 -5.73138 -0.885488
